<mxfile host="app.diagrams.net" modified="2022-02-05T05:45:45.355Z" agent="5.0 (Macintosh; Intel Mac OS X 10_15_7) AppleWebKit/537.36 (KHTML, like Gecko) Chrome/97.0.4692.71 Safari/537.36" etag="K9AVQmCG1CWFVSBd0zMg" version="16.2.6" type="github">
  <diagram id="NEwX0GINdfbFj0cJLXgC" name="Page-1">
    <mxGraphModel dx="213" dy="341" grid="1" gridSize="10" guides="1" tooltips="1" connect="1" arrows="1" fold="1" page="1" pageScale="1" pageWidth="1169" pageHeight="1654" math="0" shadow="0">
      <root>
        <mxCell id="0" />
        <mxCell id="1" parent="0" />
        <mxCell id="d1wSOaY1Rt4tFcjzDiCB-96" value="ByteBuffer" style="swimlane;fontStyle=0;childLayout=stackLayout;horizontal=1;startSize=26;horizontalStack=0;resizeParent=1;resizeParentMax=0;resizeLast=0;collapsible=1;marginBottom=0;align=center;fontSize=14;fontColor=none;strokeColor=default;" vertex="1" parent="1">
          <mxGeometry x="10" y="310" width="160" height="236" as="geometry" />
        </mxCell>
        <mxCell id="d1wSOaY1Rt4tFcjzDiCB-100" value="Private variable" style="swimlane;childLayout=stackLayout;horizontal=1;startSize=30;horizontalStack=0;rounded=1;fontSize=14;fontStyle=0;strokeWidth=2;resizeParent=0;resizeLast=1;shadow=0;dashed=0;align=center;fontColor=none;" vertex="1" parent="d1wSOaY1Rt4tFcjzDiCB-96">
          <mxGeometry y="26" width="160" height="120" as="geometry">
            <mxRectangle y="26" width="160" height="30" as="alternateBounds" />
          </mxGeometry>
        </mxCell>
        <mxCell id="d1wSOaY1Rt4tFcjzDiCB-101" value="unsigned int rpos, wpos" style="align=left;strokeColor=none;fillColor=none;spacingLeft=4;fontSize=12;verticalAlign=top;resizable=0;rotatable=0;part=1;fontColor=none;noLabel=1;labelBorderColor=none;" vertex="1" parent="d1wSOaY1Rt4tFcjzDiCB-100">
          <mxGeometry y="30" width="160" height="90" as="geometry" />
        </mxCell>
        <mxCell id="d1wSOaY1Rt4tFcjzDiCB-97" value="Item 1" style="text;strokeColor=none;fillColor=none;spacingLeft=4;spacingRight=4;overflow=hidden;rotatable=0;points=[[0,0.5],[1,0.5]];portConstraint=eastwest;fontSize=12;fontColor=none;" vertex="1" parent="d1wSOaY1Rt4tFcjzDiCB-96">
          <mxGeometry y="146" width="160" height="30" as="geometry" />
        </mxCell>
        <mxCell id="d1wSOaY1Rt4tFcjzDiCB-98" value="Item 2" style="text;strokeColor=none;fillColor=none;spacingLeft=4;spacingRight=4;overflow=hidden;rotatable=0;points=[[0,0.5],[1,0.5]];portConstraint=eastwest;fontSize=12;fontColor=none;" vertex="1" parent="d1wSOaY1Rt4tFcjzDiCB-96">
          <mxGeometry y="176" width="160" height="30" as="geometry" />
        </mxCell>
        <mxCell id="d1wSOaY1Rt4tFcjzDiCB-99" value="Item 3" style="text;strokeColor=none;fillColor=none;spacingLeft=4;spacingRight=4;overflow=hidden;rotatable=0;points=[[0,0.5],[1,0.5]];portConstraint=eastwest;fontSize=12;fontColor=none;" vertex="1" parent="d1wSOaY1Rt4tFcjzDiCB-96">
          <mxGeometry y="206" width="160" height="30" as="geometry" />
        </mxCell>
      </root>
    </mxGraphModel>
  </diagram>
</mxfile>
